<?xml version="1.0" standalone="no"?>
<!DOCTYPE svg PUBLIC "-//W3C//DTD SVG 20010904//EN"
 "http://www.w3.org/TR/2001/REC-SVG-20010904/DTD/svg10.dtd">
<svg version="1.0" xmlns="http://www.w3.org/2000/svg"
 width="1200.000000pt" height="253.000000pt" viewBox="0 0 1200.000000 253.000000"
 preserveAspectRatio="xMidYMid meet">

<g transform="translate(0.000000,253.000000) scale(0.100000,-0.100000)"
fill="#000000" stroke="none">
<path d="M4990 1773 c0 -610 0 -608 60 -729 38 -78 136 -172 222 -212 71 -34
154 -52 240 -52 l58 0 0 94 0 93 -79 6 c-130 8 -224 66 -279 171 l-27 51 -3
568 -3 567 -94 0 -95 0 0 -557z"/>
<path d="M9642 1768 c-30 -30 -3 -82 40 -76 29 4 47 50 28 72 -15 19 -51 21
-68 4z"/>
<path d="M785 1739 c-114 -17 -145 -33 -249 -132 l-97 -92 -30 -95 c-34 -105
-37 -148 -15 -232 8 -31 13 -65 12 -75 -2 -10 13 -49 33 -87 62 -117 185 -209
319 -237 119 -24 272 6 371 73 27 18 193 168 370 333 177 165 344 313 372 328
135 79 309 21 387 -127 36 -70 38 -188 4 -257 -30 -62 -86 -117 -150 -146 -46
-22 -65 -25 -133 -21 l-80 3 3 -95 3 -95 69 -3 c247 -11 458 166 496 414 31
202 -77 407 -263 499 -139 69 -285 70 -423 4 -70 -33 -61 -25 -475 -410 -164
-152 -315 -284 -336 -295 -22 -11 -68 -20 -111 -22 -66 -4 -79 -1 -137 27 -64
32 -105 73 -139 138 -9 18 -16 37 -16 43 0 7 71 10 212 10 l211 0 56 53 c31
28 98 91 149 140 l94 88 -28 47 c-64 108 -185 194 -312 221 -59 12 -81 12
-167 0z m165 -191 c40 -12 123 -66 118 -77 -2 -4 -29 -31 -61 -59 l-57 -52
-185 0 c-134 0 -185 3 -185 12 0 20 58 103 87 124 91 67 178 83 283 52z"/>
<path d="M3030 1735 c-133 -38 -243 -124 -294 -230 -67 -139 -61 -72 -64 -717
l-3 -588 96 0 95 0 0 336 c0 185 3 334 8 332 4 -1 37 -18 73 -35 40 -20 98
-38 142 -45 257 -40 508 147 547 408 37 245 -129 488 -372 544 -59 13 -174 11
-228 -5z m246 -200 c60 -27 115 -81 146 -144 34 -69 32 -187 -4 -257 -58 -111
-168 -172 -294 -161 -239 19 -353 309 -194 490 88 101 220 128 346 72z"/>
<path d="M4170 1731 c-82 -26 -118 -48 -183 -110 -102 -96 -145 -186 -154
-316 -10 -146 40 -280 141 -380 195 -191 496 -187 684 9 185 192 184 485 -3
672 -64 65 -138 108 -220 130 -70 19 -198 17 -265 -5z m228 -173 c26 -6 50
-17 55 -24 4 -7 15 -10 24 -7 11 4 14 3 9 -5 -4 -7 -1 -12 6 -12 8 0 23 -7 34
-16 10 -8 12 -13 4 -9 -8 4 -4 -3 10 -16 14 -12 24 -26 23 -30 -2 -5 2 -9 7
-9 6 0 10 -5 10 -11 0 -6 7 -18 16 -26 8 -9 13 -24 11 -34 -3 -11 -2 -19 1
-19 4 0 7 -29 8 -65 0 -36 -3 -65 -7 -65 -5 0 -6 -6 -3 -13 3 -8 -14 -43 -38
-78 -71 -106 -167 -156 -279 -146 -158 14 -272 139 -272 296 0 197 185 338
381 289z"/>
<path d="M5959 1743 c-1 -5 -2 -90 -3 -190 l-1 -183 118 0 117 0 0 35 0 35
-75 0 -75 0 0 40 0 40 65 0 65 0 0 35 0 34 -62 3 -63 3 -3 38 -3 37 75 0 76 0
0 40 0 40 -115 0 c-63 0 -115 -3 -116 -7z"/>
<path d="M7460 1560 l0 -190 40 0 40 0 0 190 0 190 -40 0 -40 0 0 -190z"/>
<path d="M8150 1737 c-14 -7 -33 -28 -43 -48 -15 -32 -16 -41 -5 -75 11 -34
22 -44 82 -74 79 -40 97 -60 77 -84 -20 -24 -65 -19 -99 9 l-29 24 -26 -27
c-15 -16 -27 -31 -27 -35 0 -3 20 -18 43 -32 33 -19 58 -25 101 -25 53 0 61 3
92 34 27 27 34 42 34 74 0 54 -30 88 -107 123 -55 24 -64 32 -61 51 4 29 49
36 85 13 24 -16 26 -16 49 6 19 18 21 25 12 36 -33 41 -126 56 -178 30z"/>
<path d="M6295 1640 c-28 -11 -44 -31 -51 -66 -8 -42 19 -70 86 -92 68 -21 76
-47 15 -47 -22 0 -50 4 -61 8 -16 6 -25 2 -38 -17 -16 -25 -15 -26 13 -41 17
-8 56 -15 90 -15 76 0 112 26 114 83 1 47 -16 64 -84 87 -63 20 -80 50 -29 50
17 0 40 -5 51 -11 17 -8 23 -7 35 8 7 10 14 23 14 30 0 26 -108 43 -155 23z"/>
<path d="M6580 1632 c-44 -22 -80 -75 -80 -119 0 -88 57 -143 147 -143 44 0
58 5 88 31 43 38 44 51 4 66 -26 10 -33 9 -50 -8 -23 -23 -57 -24 -87 -3 -28
19 -30 74 -4 97 23 21 75 22 92 2 16 -19 40 -19 65 -1 18 13 18 15 3 38 -20
30 -75 58 -115 58 -15 0 -44 -8 -63 -18z"/>
<path d="M7205 1636 c-74 -33 -107 -124 -71 -195 37 -70 147 -95 216 -48 44
29 47 44 15 59 -21 10 -31 9 -55 -5 -15 -9 -38 -17 -49 -17 -22 0 -61 32 -61
50 0 6 40 10 100 10 l100 0 0 33 c0 92 -105 153 -195 113z m103 -80 c3 -13 -6
-16 -48 -16 -56 0 -64 15 -20 37 27 13 64 3 68 -21z"/>
<path d="M7662 1630 c-45 -27 -66 -80 -58 -145 4 -40 12 -56 41 -82 29 -28 42
-33 83 -33 27 0 57 7 70 16 20 14 22 14 22 0 0 -12 10 -16 40 -16 l40 0 0 135
0 135 -45 0 c-25 0 -45 -5 -45 -11 0 -5 -10 -3 -22 5 -31 22 -87 20 -126 -4z
m133 -75 c30 -30 31 -54 4 -89 -38 -48 -119 -22 -119 39 0 31 41 75 70 75 12
0 32 -11 45 -25z"/>
<path d="M8828 1635 c-16 -9 -28 -11 -28 -5 0 5 -18 10 -40 10 l-40 0 0 -205
0 -205 40 0 40 0 0 87 c0 81 1 85 18 71 43 -38 124 -27 165 22 73 86 22 226
-85 236 -27 3 -53 -1 -70 -11z m65 -66 c29 -16 37 -28 37 -63 0 -39 -26 -66
-63 -66 -40 0 -67 26 -67 64 0 36 7 48 35 64 25 14 32 15 58 1z"/>
<path d="M9140 1639 c-56 -22 -80 -63 -82 -134 -1 -88 50 -135 146 -135 48 0
60 4 88 30 32 29 32 31 14 45 -25 19 -45 19 -70 0 -30 -23 -62 -18 -86 13
l-22 27 104 5 103 5 -3 35 c-7 89 -104 144 -192 109z m91 -69 c25 -20 22 -22
-31 -22 -66 0 -67 1 -41 22 13 11 29 20 36 20 7 0 23 -9 36 -20z"/>
<path d="M9496 1629 c-21 -17 -26 -18 -26 -5 0 12 -10 16 -40 16 l-40 0 0
-135 0 -135 39 0 39 0 3 79 c5 89 23 121 69 121 21 0 30 7 40 29 6 17 9 35 5
40 -11 18 -61 12 -89 -10z"/>
<path d="M9850 1632 c-71 -35 -98 -116 -63 -189 22 -48 66 -73 128 -73 86 0
145 58 145 143 0 67 -74 137 -145 137 -16 0 -46 -8 -65 -18z m104 -73 c32 -25
35 -70 6 -99 -41 -41 -110 -10 -110 49 0 30 38 71 65 71 7 0 24 -9 39 -21z"/>
<path d="M10222 1630 c-18 -17 -22 -18 -22 -5 0 11 -11 15 -40 15 l-40 0 0
-135 0 -135 40 0 40 0 0 78 c0 92 15 122 61 122 24 0 33 6 44 32 10 25 10 35
2 40 -22 14 -63 8 -85 -12z"/>
<path d="M6820 1534 c0 -103 1 -106 29 -135 26 -25 37 -29 86 -29 66 0 106 18
123 55 7 14 12 68 12 120 l0 95 -40 0 -40 0 0 -81 c0 -90 -10 -119 -43 -119
-39 0 -47 18 -47 112 l0 88 -40 0 -40 0 0 -106z"/>
<path d="M8400 1534 c0 -103 1 -106 29 -135 26 -26 36 -29 90 -29 53 0 65 4
93 29 32 29 32 30 36 135 l4 106 -41 0 c-22 0 -41 -3 -42 -7 0 -5 -1 -44 -2
-88 -2 -44 -6 -86 -10 -92 -12 -19 -64 -16 -71 3 -3 9 -6 54 -6 100 l0 84 -40
0 -40 0 0 -106z"/>
<path d="M9630 1505 l0 -135 40 0 40 0 0 135 0 135 -40 0 -40 0 0 -135z"/>
<path d="M7273 1168 c-34 -35 -40 -46 -32 -60 14 -25 20 -23 73 23 45 40 46
42 30 60 -9 11 -20 19 -23 19 -4 0 -26 -19 -48 -42z"/>
<path d="M6798 1189 c-45 -26 -5 -104 41 -80 36 20 36 62 0 81 -21 12 -20 12
-41 -1z"/>
<path d="M8118 1189 c-45 -26 -5 -104 41 -80 36 20 36 62 0 81 -21 12 -20 12
-41 -1z"/>
<path d="M10280 1180 c-25 -25 -25 -42 0 -65 17 -15 24 -16 45 -7 32 15 35 66
6 82 -26 13 -28 13 -51 -10z"/>
<path d="M5959 1168 c-1 -5 -1 -330 0 -360 1 -26 4 -28 41 -28 l40 0 0 80 0
80 66 0 c102 0 143 32 144 110 0 90 -48 120 -195 120 -52 0 -95 -1 -96 -2z
m205 -100 c20 -33 -4 -53 -68 -56 l-56 -3 0 41 0 41 56 -3 c41 -2 60 -8 68
-20z"/>
<path d="M6619 1163 c-3 -24 -4 -360 -1 -370 2 -8 21 -13 43 -13 l39 0 0 195
0 195 -40 0 c-22 0 -40 -3 -41 -7z"/>
<path d="M9270 1111 c0 -60 -12 -83 -33 -62 -6 6 -33 11 -59 11 -41 0 -54 -5
-86 -34 -36 -34 -37 -36 -37 -106 0 -70 1 -72 37 -106 32 -29 45 -34 86 -34
27 0 57 7 70 16 20 14 22 14 22 0 0 -12 10 -16 40 -16 l40 0 0 195 0 195 -40
0 -40 0 0 -59z m-23 -143 c29 -27 29 -65 1 -95 -27 -29 -65 -29 -95 -1 -29 27
-29 65 -1 95 27 29 65 29 95 1z"/>
<path d="M9750 975 l0 -195 40 0 40 0 0 195 0 195 -40 0 -40 0 0 -195z"/>
<path d="M10015 1158 c-2 -7 -3 -94 -2 -193 l2 -180 103 -3 102 -3 0 41 0 40
-60 0 -60 0 0 155 0 155 -40 0 c-24 0 -42 -5 -45 -12z"/>
<path d="M11565 1161 c-19 -8 -20 -18 -20 -192 l0 -184 43 -3 42 -3 0 195 0
196 -22 -1 c-13 0 -32 -4 -43 -8z"/>
<path d="M6960 1110 c0 -47 -2 -50 -25 -50 -22 0 -25 -4 -25 -35 0 -31 3 -35
25 -35 l25 0 0 -105 0 -105 40 0 40 0 0 104 0 105 28 3 c23 3 27 8 27 33 0 25
-4 30 -27 33 -26 3 -28 6 -28 53 l0 49 -40 0 -40 0 0 -50z"/>
<path d="M10450 1110 c0 -47 -2 -50 -25 -50 -22 0 -25 -4 -25 -35 0 -31 3 -35
25 -35 l25 0 0 -105 0 -105 40 0 40 0 0 105 0 105 25 0 c22 0 25 4 25 35 0 31
-3 35 -25 35 -23 0 -25 3 -25 50 l0 50 -40 0 -40 0 0 -50z"/>
<path d="M6333 1040 c-42 -25 -63 -68 -63 -129 0 -86 64 -138 161 -129 140 14
174 198 49 263 -41 21 -109 19 -147 -5z m122 -75 c30 -30 31 -54 4 -89 -24
-31 -57 -34 -90 -8 -45 38 -16 122 43 122 10 0 30 -11 43 -25z"/>
<path d="M6780 920 l0 -140 40 0 40 0 0 140 0 140 -40 0 -40 0 0 -140z"/>
<path d="M7183 1041 c-87 -54 -83 -199 6 -246 45 -23 121 -20 162 8 44 29 47
50 11 63 -24 9 -33 8 -51 -8 -13 -10 -31 -18 -41 -18 -19 0 -70 36 -70 51 0 5
45 9 100 9 l100 0 0 40 c0 32 -7 48 -34 77 -30 33 -39 37 -92 40 -46 3 -66 0
-91 -16z m122 -61 c18 -20 17 -20 -38 -20 -58 0 -72 11 -39 29 27 16 57 13 77
-9z"/>
<path d="M7503 1040 c-88 -53 -83 -198 8 -246 50 -25 131 -15 169 21 38 36 38
49 0 65 -28 11 -33 10 -54 -9 -27 -26 -57 -27 -87 -3 -45 37 -16 122 41 122 9
0 29 -9 44 -21 24 -18 30 -20 56 -9 36 15 38 30 8 57 -53 48 -129 58 -185 23z"/>
<path d="M7770 920 l0 -140 40 0 40 0 0 93 c0 98 7 117 45 117 38 0 45 -19 45
-118 l0 -93 43 3 42 3 0 109 -1 109 -32 28 c-35 31 -77 38 -115 18 -16 -9 -22
-9 -25 0 -2 6 -21 11 -43 11 l-39 0 0 -140z"/>
<path d="M8100 920 l0 -140 40 0 40 0 0 140 0 140 -40 0 -40 0 0 -140z"/>
<path d="M8303 1040 c-87 -52 -83 -198 6 -245 17 -8 53 -15 80 -15 42 0 56 5
86 31 43 38 44 53 6 69 -26 10 -33 9 -52 -9 -44 -41 -109 -12 -109 49 0 34 30
70 59 70 10 0 30 -9 45 -21 24 -18 30 -20 56 -9 36 15 38 30 8 57 -53 48 -129
58 -185 23z"/>
<path d="M8594 1028 c-21 -20 -38 -48 -43 -70 -13 -56 3 -108 43 -145 29 -27
44 -33 81 -33 25 0 57 7 70 16 23 15 25 15 25 0 0 -12 10 -16 40 -16 l40 0 0
140 0 140 -38 0 c-21 0 -43 -5 -49 -11 -8 -8 -17 -8 -31 0 -11 6 -39 11 -61
11 -33 0 -49 -7 -77 -32z m155 -64 c12 -15 21 -34 21 -44 0 -10 -9 -29 -21
-44 -40 -50 -119 -21 -119 44 0 65 79 94 119 44z"/>
<path d="M9473 1040 c-41 -25 -63 -68 -63 -122 0 -55 17 -87 59 -115 60 -40
173 -25 201 27 9 16 6 22 -17 34 -26 13 -31 12 -52 -5 -13 -10 -34 -19 -47
-19 -24 0 -64 31 -64 50 0 6 40 10 100 10 l100 0 0 33 c-1 101 -126 163 -217
107z m108 -50 c33 -18 21 -30 -31 -30 -51 0 -64 11 -32 29 22 13 39 13 63 1z"/>
<path d="M10269 945 c-1 -63 -1 -122 -1 -130 0 -32 3 -35 42 -35 l40 0 0 140
0 140 -40 0 -40 0 -1 -115z"/>
<path d="M10673 1040 c-84 -51 -95 -156 -23 -225 24 -23 41 -29 87 -32 96 -7
157 47 157 136 0 55 -28 102 -74 126 -41 21 -109 19 -147 -5z m118 -68 c47
-39 16 -122 -46 -122 -26 0 -65 42 -65 70 0 28 39 70 65 70 12 0 33 -8 46 -18z"/>
<path d="M10950 919 l0 -140 42 3 42 3 3 79 c3 88 18 116 63 116 27 0 50 31
50 65 0 21 -73 20 -91 -1 -11 -14 -13 -14 -21 0 -6 10 -23 16 -48 16 l-40 0 0
-141z"/>
<path d="M11224 1041 c-32 -19 -64 -82 -64 -124 1 -40 37 -105 69 -121 38 -20
101 -21 127 -1 25 19 34 19 34 0 0 -10 11 -15 35 -15 l35 0 0 140 0 140 -40 0
c-30 0 -40 -4 -40 -16 0 -14 -2 -14 -22 0 -31 22 -96 20 -134 -3z m137 -69
c47 -39 16 -122 -47 -122 -33 0 -64 34 -64 70 0 60 64 90 111 52z"/>
</g>
</svg>
